# xmcd CD database file
#
# Track frame offsets:
#	150
#	19530
#	37765
#	51525
#	64862
#	78862
#	95882
#	110712
#	125192
#	138195
#	155505
#	169702
#	184442
#	199815
#	220960
#	239584
#	253742
#	274600
#	290155
#
# Disc length: 4107 seconds
#
# Revision: 0
# Processed by: cddbd v1.5.1PL0 Copyright (c) Steve Scherf et al.
# Submitted via: CDex 1.51
#
DISCID=28100913
DTITLE=Hasse Andersson - En kväll i Hasses lada
DYEAR=2002
DGENRE=Country
TTITLE0=Änglahund
TTITLE1=Näcken och spelmannen
TTITLE2=North to Alaska
TTITLE3=Ett hjärta av guld
TTITLE4=Vilken tur
TTITLE5=A violin that never has been played
TTITLE6=En jukebox på Guns konditori
TTITLE7=Just idag
TTITLE8=Lördag kväll
TTITLE9=Tills jag vant mig av med dig
TTITLE10=Dans på Vejby ängar
TTITLE11=Wilde Louise
TTITLE12=Du är alltid nära mig
TTITLE13=Eleonors snoa
TTITLE14=Samling i köket
TTITLE15=Skomakare Anton
TTITLE16=Måsen
TTITLE17=Arrendatorns klagan
TTITLE18=Angel body
EXTD=YEAR: 2002
EXTT0=
EXTT1=
EXTT2=
EXTT3=
EXTT4=
EXTT5=
EXTT6=
EXTT7=
EXTT8=
EXTT9=
EXTT10=
EXTT11=
EXTT12=
EXTT13=
EXTT14=
EXTT15=
EXTT16=
EXTT17=
EXTT18=
PLAYORDER=
